<?xml version="1.0" encoding="UTF-8" standalone="no"?>
<!-- Created with Inkscape (http://www.inkscape.org/) -->

<svg
   xmlns:dc="http://purl.org/dc/elements/1.1/"
   xmlns:cc="http://creativecommons.org/ns#"
   xmlns:rdf="http://www.w3.org/1999/02/22-rdf-syntax-ns#"
   xmlns:svg="http://www.w3.org/2000/svg"
   xmlns="http://www.w3.org/2000/svg"
   xmlns:sodipodi="http://sodipodi.sourceforge.net/DTD/sodipodi-0.dtd"
   xmlns:inkscape="http://www.inkscape.org/namespaces/inkscape"
   width="210mm"
   height="297mm"
   viewBox="0 0 210 297"
   version="1.1"
   id="svg8"
   inkscape:version="0.92.3 (2405546, 2018-03-11)"
   sodipodi:docname="icons-all.svg">
  <defs
     id="defs2" />
  <sodipodi:namedview
     id="base"
     pagecolor="#ffffff"
     bordercolor="#666666"
     borderopacity="1.0"
     inkscape:pageopacity="0.0"
     inkscape:pageshadow="2"
     inkscape:zoom="1.979899"
     inkscape:cx="285.88289"
     inkscape:cy="768.31941"
     inkscape:document-units="mm"
     inkscape:current-layer="layer1"
     showgrid="false"
     inkscape:window-width="1920"
     inkscape:window-height="1001"
     inkscape:window-x="-9"
     inkscape:window-y="-9"
     inkscape:window-maximized="1" />
  <metadata
     id="metadata5">
    <rdf:RDF>
      <cc:Work
         rdf:about="">
        <dc:format>image/svg+xml</dc:format>
        <dc:type
           rdf:resource="http://purl.org/dc/dcmitype/StillImage" />
        <dc:title></dc:title>
      </cc:Work>
    </rdf:RDF>
  </metadata>
  <g
     inkscape:label="Vrstva 1"
     inkscape:groupmode="layer"
     id="layer1">
    <path
       id="path845"
       d="m 175.14428,113.26232 1.12184,-1.93939 0.45773,0.26458 -1.38377,2.39448 -1.72244,-0.99219 -1.26206,2.18281 h 4.3762 v 0.52917 h -5.29166 v -4.7625 h 0.52916 v 3.84704 l 1.45521,-2.52412 z"
       inkscape:connector-curvature="0"
       style="stroke-width:0.26458332;fill:#164265;fill-opacity:1" />
    <path
       id="path866"
       d="m 42.436827,110.93928 2.38125,1.06653 v 1.5875 c 0,1.46342 -1.017058,2.84004 -2.38125,3.175 -1.364192,-0.33496 -2.38125,-1.71158 -2.38125,-3.175 v -1.5875 z m 0,2.91465 v 2.36881 c 0.979752,-0.31009 1.71159,-1.2774 1.84785,-2.36881 z m 0,0 v -2.33177 l -1.84785,0.81862 v 1.51315 z"
       inkscape:connector-curvature="0"
       style="stroke-width:0.26458332;fill:#800000;fill-opacity:1" />
    <path
       id="path887"
       d="m 91.102981,112.79136 h 1.455208 l -1.455208,-1.45521 v 1.45521 m -1.852083,-1.85208 h 2.116666 l 1.5875,1.5875 v 3.175 a 0.52916667,0.52916667 0 0 1 -0.529166,0.52917 h -3.175 c -0.293688,0 -0.529167,-0.23813 -0.529167,-0.52917 v -4.23333 a 0.52916667,0.52916667 0 0 1 0.529167,-0.52917 m -1.058334,1.05833 v 4.7625 h 4.233334 v 0.52917 h -4.233334 a 0.52916667,0.52916667 0 0 1 -0.529166,-0.52917 v -4.7625 z"
       inkscape:connector-curvature="0"
       style="stroke-width:0.26458332;fill:#0275d8;fill-opacity:1" />
    <path
       id="path908"
       d="m 54.934094,113.32053 h -1.058333 v -0.52916 h 1.058333 m 0,1.5875 h -1.058333 v -0.52917 h 1.058333 m 1.5875,-1.5875 h -0.743479 c -0.119063,-0.20637 -0.283104,-0.38364 -0.481542,-0.51858 l 0.431271,-0.43128 -0.373063,-0.37306 -0.574145,0.57415 c -0.121709,-0.0291 -0.243417,-0.045 -0.375709,-0.045 -0.132291,0 -0.254,0.0159 -0.373062,0.045 l -0.576792,-0.57415 -0.373062,0.37306 0.428625,0.43128 c -0.195792,0.13494 -0.359834,0.31221 -0.478896,0.51858 h -0.743479 v 0.52917 h 0.552979 c -0.01323,0.0873 -0.02381,0.17462 -0.02381,0.26458 v 0.26458 h -0.529166 v 0.52917 h 0.529166 v 0.26458 c 0,0.09 0.01058,0.17728 0.02381,0.26459 h -0.552979 v 0.52916 h 0.743479 c 0.275166,0.47361 0.785812,0.79375 1.373187,0.79375 0.587375,0 1.098021,-0.32014 1.373188,-0.79375 h 0.743479 v -0.52916 h -0.552979 c 0.01323,-0.0873 0.02381,-0.17463 0.02381,-0.26459 v -0.26458 h 0.529167 v -0.52917 h -0.529165 v -0.26458 c 0,-0.09 -0.01058,-0.17727 -0.02381,-0.26458 h 0.552979 z"
       inkscape:connector-curvature="0"
       style="stroke-width:0.26458332;fill:#d9534f;fill-opacity:1" />
    <path
       id="path950"
       d="m 164.42204,112.00886 c 0.10318,-0.10319 0.10318,-0.27517 0,-0.37306 l -0.61913,-0.61913 c -0.0979,-0.10319 -0.26987,-0.10319 -0.37306,0 l -0.48683,0.48419 0.99218,0.99219 m -4.19893,2.2172 v 0.99219 h 0.99218 l 2.9263,-2.92894 -0.99219,-0.99218 z"
       inkscape:connector-curvature="0"
       style="stroke-width:0.26458332;fill:#008080;fill-opacity:1" />
    <path
       id="path971"
       d="m 114.93335,113.74386 1.21708,-1.21708 -1.21708,-1.21708 0.37042,-0.37042 1.5875,1.5875 -1.5875,1.5875 -0.37042,-0.37042 m -1.37583,0 -1.21709,-1.21708 1.21709,-1.21708 -0.37042,-0.37042 -1.5875,1.5875 1.5875,1.5875 z"
       inkscape:connector-curvature="0"
       style="stroke-width:0.26458332;fill:#000000;fill-opacity:1" />
    <path
       id="path992"
       d="m 140.03372,110.93928 -1.32292,1.19062 v 2.91042 l 1.32292,-1.19063 v -2.91041 m -3.30729,0.79375 c -0.51594,0 -1.07157,0.10583 -1.45521,0.39687 v 3.87879 c 0,0.0662 0.0661,0.1323 0.13229,0.1323 0.0265,0 0.0397,-0.0185 0.0662,-0.0185 0.35719,-0.17198 0.87312,-0.2884 1.25677,-0.2884 0.51594,0 1.07156,0.10583 1.45521,0.39687 0.35719,-0.22489 1.00542,-0.39687 1.45521,-0.39687 0.43656,0 0.88635,0.082 1.25677,0.28046 0.0265,0.0132 0.0397,0.008 0.0662,0.008 0.0661,0 0.13229,-0.0662 0.13229,-0.13229 v -3.86028 c -0.15875,-0.11906 -0.33073,-0.19843 -0.52917,-0.26458 v 0.52917 1.4552 1.5875 c -0.29104,-0.0926 -0.60854,-0.13229 -0.92604,-0.13229 -0.44979,0 -1.09802,0.17198 -1.45521,0.39688 v -1.85209 -1.19062 -0.52917 c -0.38364,-0.29104 -0.93927,-0.39687 -1.45521,-0.39687 z"
       inkscape:connector-curvature="0"
       style="stroke-width:0.26458332;fill:#b1b1b1;fill-opacity:1" />
    <path
       id="path1013"
       d="m 68.809513,111.37121 -0.354542,-0.35454 c -0.0979,-0.10319 -0.269875,-0.10319 -0.373062,0 l -2.370667,2.37066 0.727604,0.72761 2.370667,-2.37067 c 0.103187,-0.10319 0.103187,-0.27516 0,-0.37306 m -3.627438,2.47915 a 0.79375,0.79375 0 0 0 -0.79375,0.79375 c 0,0.3466 -0.306916,0.52916 -0.529166,0.52916 0.243416,0.32279 0.661458,0.52917 1.058333,0.52917 a 1.0583333,1.0583333 0 0 0 1.058333,-1.05833 0.79375,0.79375 0 0 0 -0.79375,-0.79375 z"
       inkscape:connector-curvature="0"
       style="stroke-width:0.26458332;fill:#f6a623;fill-opacity:1" />
    <path
       id="path1034"
       d="m 126.21353,110.93928 a 1.8520833,1.8520833 0 0 1 1.85209,1.85209 c 0,0.62971 -0.31486,1.18269 -0.79375,1.51871 v 0.59795 a 0.26458333,0.26458333 0 0 1 -0.26459,0.26459 h -1.5875 a 0.26458333,0.26458333 0 0 1 -0.26458,-0.26459 v -0.59795 c -0.47889,-0.33602 -0.79375,-0.889 -0.79375,-1.51871 a 1.8520833,1.8520833 0 0 1 1.85208,-1.85209 m -0.79375,5.02709 v -0.26459 h 1.5875 v 0.26459 a 0.26458333,0.26458333 0 0 1 -0.26458,0.26458 h -1.05833 a 0.26458333,0.26458333 0 0 1 -0.26459,-0.26458 m 0.79375,-4.49792 a 1.3229167,1.3229167 0 0 0 -1.32291,1.32292 c 0,0.54239 0.32544,1.00806 0.79375,1.21179 v 0.64029 h 1.05833 v -0.64029 c 0.46831,-0.20373 0.79375,-0.6694 0.79375,-1.21179 a 1.3229167,1.3229167 0 0 0 -1.32292,-1.32292 z"
       inkscape:connector-curvature="0"
       style="stroke-width:0.26458332;fill:#54d2a0;fill-opacity:1" />
    <path
       id="path1055"
       d="m 32.056226,114.66461 c -0.201083,0 -0.381,0.0794 -0.518583,0.20373 l -1.886479,-1.09802 c 0.01323,-0.0609 0.02381,-0.12171 0.02381,-0.18521 0,-0.0635 -0.01058,-0.12436 -0.02381,-0.18521 l 1.865313,-1.08744 c 0.142875,0.13229 0.330729,0.21432 0.53975,0.21432 a 0.79375,0.79375 0 0 0 0.79375,-0.79375 0.79375,0.79375 0 0 0 -0.79375,-0.79375 0.79375,0.79375 0 0 0 -0.79375,0.79375 c 0,0.0635 0.01058,0.12435 0.02381,0.1852 l -1.865313,1.08744 c -0.142875,-0.13229 -0.33073,-0.21431 -0.53975,-0.21431 a 0.79375,0.79375 0 0 0 -0.79375,0.79375 0.79375,0.79375 0 0 0 0.79375,0.79375 c 0.20902,0 0.396875,-0.082 0.53975,-0.21431 l 1.883833,1.09802 c -0.01323,0.0556 -0.02117,0.11377 -0.02117,0.17462 0,0.42598 0.346604,0.76994 0.772583,0.76994 0.425979,0 0.772584,-0.34396 0.772584,-0.76994 a 0.77258333,0.77258333 0 0 0 -0.772584,-0.77258 z"
       inkscape:connector-curvature="0"
       style="stroke-width:0.26458332;fill:#7ec2f3;fill-opacity:1" />
    <path
       id="path1076"
       d="m 78.57136,114.39744 -0.672042,-0.6641 0.0079,-0.008 c 0.460373,-0.51329 0.788456,-1.10331 0.981602,-1.72773 h 0.775229 v -0.52917 h -1.852083 v -0.52916 h -0.529167 v 0.52916 h -1.852083 v 0.52917 h 2.955396 c -0.177271,0.508 -0.45773,0.99219 -0.83873,1.41552 -0.246062,-0.27252 -0.449791,-0.5715 -0.611187,-0.88635 h -0.529167 c 0.193146,0.43127 0.457729,0.83873 0.788459,1.2065 l -1.34673,1.32821 0.375709,0.3757 1.322916,-1.32291 0.822855,0.82285 0.201083,-0.53975 m 1.489604,-1.34144 h -0.529167 l -1.190625,3.175 h 0.529167 l 0.296333,-0.79375 h 1.256771 l 0.298979,0.79375 h 0.529167 l -1.190625,-3.175 m -0.693208,1.85209 0.428625,-1.14565 0.428625,1.14565 z"
       inkscape:connector-curvature="0"
       style="stroke-width:0.26458332;fill:#ffce3d;fill-opacity:1" />
    <path
       id="path1097"
       d="m 150.14974,110.93928 -2.91042,1.5875 2.91042,1.5875 2.38125,-1.29911 v 1.82827 h 0.52916 v -2.11666 m -4.7625,1.10595 v 1.05834 l 1.85209,1.01071 1.85208,-1.01071 v -1.05834 l -1.85208,1.01071 z"
       inkscape:connector-curvature="0"
       style="stroke-width:0.26458332;fill:#782c51;fill-opacity:1" />
    <path
       id="path1118"
       d="m 103.60025,112.12991 v -0.92604 a 0.26458333,0.26458333 0 0 0 -0.26458,-0.26459 h -3.175 a 0.26458333,0.26458333 0 0 0 -0.264586,0.26459 v 2.64583 a 0.26458333,0.26458333 0 0 0 0.264586,0.26458 h 3.175 a 0.26458333,0.26458333 0 0 0 0.26458,-0.26458 v -0.92604 l 1.05833,1.05833 v -2.91042 z"
       inkscape:connector-curvature="0"
       style="stroke-width:0.26458332;fill:#ec3324;fill-opacity:1" />
    <g
       id="g1186"
       transform="matrix(0.01596054,0,0,0.01596054,13.685359,108.93027)"
       style="stroke-width:16.5773468;fill:#b10dc9;fill-opacity:1">
      <path
         d="m 451,328.5 c 0,35.8 -29.1,64.9 -64.9,64.9 -35.8,0 -64.9,-29.1 -64.9,-64.9 0,-35.8 29.1,-64.9 64.9,-64.9 35.8,0.1 64.8,29.1 64.9,64.9 z"
         class="st0"
         id="_x3C_Path_x3E__1_"
         inkscape:connector-curvature="0"
         style="fill:#b10dc9;stroke-width:16.5773468;fill-opacity:1" />
      <path
         d="m 451,328.5 c 0,35.8 -29.1,64.9 -64.9,64.9 -35.8,0 -64.9,-29.1 -64.9,-64.9 0,-35.8 29.1,-64.9 64.9,-64.9 35.8,0.1 64.8,29.1 64.9,64.9 z"
         class="st1"
         id="_x3C_Path_x3E_"
         inkscape:connector-curvature="0"
         style="fill:#b10dc9;stroke-width:16.5773468;fill-opacity:1" />
      <path
         id="path1138"
         d="m 355.6,429 c -55.5,-16.8 -86.9,-75.4 -70,-130.9 11.4,-37.7 43,-65.8 81.7,-72.9 -4.2,-2.2 -8.5,-4.4 -12.9,-6.5 C 332.1,208 309,199 285.3,191.8 223.7,237.2 200,318.2 227.6,389.6 c 39.6,21.6 83.1,35 128,39.4 z"
         class="st0"
         inkscape:connector-curvature="0"
         style="fill:#b10dc9;stroke-width:16.5773468;fill-opacity:1" />
      <path
         id="path1145"
         d="m 355.6,429 c -55.5,-16.8 -86.9,-75.4 -70,-130.9 11.4,-37.7 43,-65.8 81.7,-72.9 -4.2,-2.2 -8.5,-4.4 -12.9,-6.5 C 332.1,208 309,199 285.3,191.8 223.7,237.2 200,318.2 227.6,389.6 c 39.6,21.6 83.1,35 128,39.4 z"
         class="st2"
         inkscape:connector-curvature="0"
         style="fill:#b10dc9;stroke-width:16.5773468;fill-opacity:1" />
      <path
         id="path1152"
         d="m 355.6,429 c -55.5,-16.8 -86.9,-75.4 -70,-130.9 11.4,-37.7 43,-65.8 81.7,-72.9 -4.2,-2.2 -8.5,-4.4 -12.9,-6.5 C 332.1,208 309,199 285.3,191.8 223.7,237.2 200,318.2 227.6,389.6 c 39.6,21.6 83.1,35 128,39.4 z"
         class="st3"
         inkscape:connector-curvature="0"
         style="fill:#b10dc9;stroke-width:16.5773468;fill-opacity:1" />
      <path
         id="path1154"
         d="m 266,97.7 c -125,0 -187,48 -226,75 0,0 47,-7 85,-7 179,0 314.2,79.8 366.2,162.8 -0.1,58 -47,104.9 -105,105 v 0 c -32,0 -177.2,-3.8 -277.2,-148.8 45.2,128.8 175.2,213.7 277.1,213.7 v 0 C 479.8,498.4 556,422.2 556,328.5 556.1,184.5 381,97.7 266,97.7 Z"
         class="st0"
         inkscape:connector-curvature="0"
         style="fill:#b10dc9;stroke-width:16.5773468;fill-opacity:1" />
      <path
         id="path1161"
         d="m 266,97.7 c -125,0 -187,48 -226,75 0,0 47,-7 85,-7 179,0 314.2,79.8 366.2,162.8 -0.1,58 -47,104.9 -105,105 v 0 c -32,0 -177.2,-3.8 -277.2,-148.8 45.2,128.8 175.2,213.7 277.1,213.7 v 0 C 479.8,498.4 556,422.2 556,328.5 556.1,184.5 381,97.7 266,97.7 Z"
         class="st4"
         inkscape:connector-curvature="0"
         style="fill:#b10dc9;stroke-width:16.5773468;fill-opacity:1" />
      <path
         id="path1168"
         d="m 266,97.7 c -125,0 -187,48 -226,75 0,0 47,-7 85,-7 179,0 314.2,79.8 366.2,162.8 -0.1,58 -47,104.9 -105,105 v 0 c -32,0 -177.2,-3.8 -277.2,-148.8 45.2,128.8 175.2,213.7 277.1,213.7 v 0 C 479.8,498.4 556,422.2 556,328.5 556.1,184.5 381,97.7 266,97.7 Z"
         class="st5"
         inkscape:connector-curvature="0"
         style="fill:#b10dc9;stroke-width:16.5773468;fill-opacity:1" />
    </g>
  </g>
  <style
     id="style1129"
     type="text/css">
	.st0{fill:#4E7DBF;}
	.st1{fill:url(#_x3C_Path_x3E__2_);}
	.st2{fill:url(#SVGID_1_);}
	.st3{fill:url(#SVGID_2_);}
	.st4{fill:url(#SVGID_3_);}
	.st5{fill:url(#SVGID_4_);}
</style>
</svg>
